<svg id="Layer_1" data-name="Layer 1" xmlns="http://www.w3.org/2000/svg" width="255.69" height="65" viewBox="0 0 255.69 65"><defs><style>.cls-1{fill:#231f20;}.cls-2{fill:#624fa1;}</style></defs><path class="cls-1" d="M0,1.84A1.78,1.78,0,0,1,1.71.14H9.56a1.78,1.78,0,0,1,1.71,1.7v40a2.13,2.13,0,0,0,.13.89,3.56,3.56,0,0,0,.75-.07,1.7,1.7,0,0,1,2,1.37l1,5.87a1.7,1.7,0,0,1-1,1.84,12.1,12.1,0,0,1-4.85.82C2.59,52.57,0,47.66,0,41.44Z"/><path class="cls-2" d="M19.25,6.21A6.24,6.24,0,0,1,25.81,0a6.23,6.23,0,0,1,6.55,6.21,6.26,6.26,0,0,1-6.55,6.15A6.27,6.27,0,0,1,19.25,6.21Z"/><path class="cls-1" d="M38.1,16.52a1.78,1.78,0,0,1,1.71-1.7h6.48A1.77,1.77,0,0,1,48,16.32l.14,1.5A15.64,15.64,0,0,1,58.1,14c8.4,0,12,6.14,12,15v21a1.77,1.77,0,0,1-1.71,1.7H60.56a1.77,1.77,0,0,1-1.7-1.7V30c0-5.19-1-5.87-3.55-5.87-2.12,0-3.56.89-5.94,3.21V50.05a1.78,1.78,0,0,1-1.71,1.7H39.81a1.77,1.77,0,0,1-1.71-1.7Z"/><path class="cls-1" d="M76.61,1.84A1.78,1.78,0,0,1,78.32.14H86a1.77,1.77,0,0,1,1.71,1.7V27.38l9.63-11.95a1.67,1.67,0,0,1,1.29-.61h8.61s3.48.2,1.29,2.8L97.91,30.32l12,18.84s1.84,2.59-1.43,2.59H99.89a2,2,0,0,1-1.5-.81L91,38.37l-3.28,3.76v7.92A1.78,1.78,0,0,1,86,51.75H78.32a1.77,1.77,0,0,1-1.71-1.7Z"/><path class="cls-1" d="M126.32,52.78V63.29A1.78,1.78,0,0,1,124.61,65h-7.85a1.78,1.78,0,0,1-1.71-1.71V16.52a1.78,1.78,0,0,1,1.71-1.7h6.48A1.83,1.83,0,0,1,125,16.25l.14.89A16,16,0,0,1,134.17,14c9.56,0,14.88,7.92,14.88,18.77,0,12.16-7.44,19.8-16,19.8a13.37,13.37,0,0,1-6.76-2Zm5.05-10.11c3.14,0,6.14-2.66,6.14-9.83,0-6.48-1.84-8.94-5.53-8.94-1.7,0-3.48.82-5.66,2.8V40.76A8.11,8.11,0,0,0,131.37,42.67Z"/><path class="cls-1" d="M200.81,40.15a1.65,1.65,0,0,1,2.39-.34c2.87,2.18,5.4,3.41,8.26,3.41,3.08,0,3.62-1.16,3.62-2.32S213,38.65,209,37.07c-4.37-1.63-10.52-4.5-10.52-11.33,0-7,5.81-11.74,13.93-11.74a19.81,19.81,0,0,1,12.15,4.37,1.81,1.81,0,0,1,.34,2.39l-3.61,4.78a1.81,1.81,0,0,1-2.39.34,10.65,10.65,0,0,0-6.35-2.53c-2.8,0-3.21,1-3.21,2s1.64,1.91,5.8,3.41c4.51,1.71,10.79,4.24,10.79,11.75,0,6.83-5.6,12.08-14.75,12.08a22.55,22.55,0,0,1-13.79-5,1.71,1.71,0,0,1-.27-2.32Z"/><path class="cls-1" d="M234.82,24.44h-3.08a1.77,1.77,0,0,1-1.7-1.7V16.86a1.77,1.77,0,0,1,1.57-1.7l3.75-.28.82-7.71a1.7,1.7,0,0,1,1.71-1.5h6.55a1.77,1.77,0,0,1,1.71,1.7v7.45H253a1.77,1.77,0,0,1,1.7,1.7v6.22a1.77,1.77,0,0,1-1.7,1.7h-6.83V38.71c0,3.49.89,4.17,3,4.17a8,8,0,0,0,2.8-.62,1.55,1.55,0,0,1,2.32,1.16l1.37,5.81a1.73,1.73,0,0,1-1.09,2.05,24,24,0,0,1-7.38,1.29c-8.87,0-12.35-6.14-12.35-13.86Z"/><path class="cls-1" d="M173.57,13.88A19.33,19.33,0,1,0,192.9,33.21,19.32,19.32,0,0,0,173.57,13.88Zm6.12,22.4h-2.58a1,1,0,0,0-1,1v7.88a1.38,1.38,0,0,1-1.38,1.38h-2.32A1.37,1.37,0,0,1,171,45.16V37.28a1,1,0,0,0-1-1h-2.58a2.9,2.9,0,0,1-2.51-4.35l6.12-10.6a2.9,2.9,0,0,1,5,0l6.12,10.6A2.9,2.9,0,0,1,179.69,36.28Z"/><path class="cls-1" d="M20.14,16.52a1.78,1.78,0,0,1,1.71-1.7H29.7a1.78,1.78,0,0,1,1.71,1.7V50.05a1.78,1.78,0,0,1-1.71,1.7H21.85a1.77,1.77,0,0,1-1.71-1.7Z"/></svg>