<?xml version="1.0" encoding="utf-8"?>
<!-- Generator: Adobe Illustrator 24.1.2, SVG Export Plug-In . SVG Version: 6.00 Build 0)  -->
<svg version="1.1" id="Layer_1" xmlns="http://www.w3.org/2000/svg" xmlns:xlink="http://www.w3.org/1999/xlink" x="0px" y="0px"
	 width="255.69px" height="65px" viewBox="0 0 255.69 65" style="enable-background:new 0 0 255.69 65;" xml:space="preserve">
<style type="text/css">
	.st0{fill:#FFFFFF;}
	.st1{fill:#FCB017;}
	.st2{fill:#624FA1;}
</style>
<g>
	<path class="st2" d="M0,1.84c0-1.02,0.96-1.71,1.71-1.71h7.85c1.02,0,1.71,0.96,1.71,1.71v40.01c0,0.48,0.07,0.75,0.14,0.89
		c0.2,0,0.34,0,0.75-0.07c0.89-0.2,1.84,0.34,2.05,1.37l1.02,5.87c0.14,0.82-0.34,1.57-1.02,1.84c-1.23,0.55-2.87,0.82-4.85,0.82
		C2.59,52.57,0,47.66,0,41.44V1.84z"/>
	<path class="st2" d="M19.25,6.21c0-3.69,2.94-6.21,6.55-6.21s6.55,2.53,6.55,6.21c0,3.62-3,6.14-6.55,6.14S19.25,9.83,19.25,6.21z"
		/>
	<path class="st2" d="M38.1,16.52c0-1.02,0.96-1.71,1.71-1.71h6.49c0.89,0,1.64,0.75,1.71,1.5l0.14,1.5
		C50.87,15.64,54.08,14,58.1,14c8.4,0,12.02,6.14,12.02,15.02v21.03c0,1.02-0.96,1.71-1.71,1.71h-7.85c-1.02,0-1.71-0.96-1.71-1.71
		V30.04c0-5.19-1.02-5.87-3.55-5.87c-2.12,0-3.55,0.89-5.94,3.21v22.67c0,1.02-0.96,1.71-1.71,1.71h-7.85
		c-1.02,0-1.71-0.96-1.71-1.71V16.52z"/>
	<path class="st2" d="M76.61,1.84c0-1.02,0.96-1.71,1.71-1.71h7.72c1.02,0,1.71,0.96,1.71,1.71v25.54l9.63-11.95
		c0.34-0.41,0.82-0.61,1.3-0.61h8.6c0,0,3.48,0.21,1.3,2.8l-10.65,12.7l11.95,18.84c0,0,1.84,2.59-1.43,2.59h-8.53
		c-0.61,0-1.23-0.41-1.5-0.82l-7.37-12.56l-3.28,3.76v7.92c0,1.02-0.96,1.71-1.71,1.71h-7.72c-1.02,0-1.71-0.96-1.71-1.71V1.84z"/>
	<path class="st2" d="M126.32,52.78v10.51c0,1.02-0.96,1.71-1.71,1.71h-7.85c-1.02,0-1.71-0.96-1.71-1.71V16.52
		c0-1.02,0.96-1.71,1.71-1.71h6.49c0.82,0,1.57,0.68,1.71,1.43l0.14,0.89c2.66-1.84,5.74-3.14,9.08-3.14
		c9.56,0,14.88,7.92,14.88,18.78c0,12.15-7.44,19.8-16.05,19.8c-2.39,0-4.64-0.75-6.76-1.98L126.32,52.78z M131.37,42.67
		c3.14,0,6.14-2.66,6.14-9.83c0-6.49-1.84-8.94-5.53-8.94c-1.71,0-3.48,0.82-5.67,2.8v14.07C128.3,42.26,129.94,42.67,131.37,42.67z
		"/>
	<path class="st2" d="M200.81,40.15c0.55-0.75,1.57-0.96,2.39-0.34c2.87,2.18,5.39,3.41,8.26,3.41c3.07,0,3.62-1.16,3.62-2.32
		s-2.05-2.25-6.08-3.82c-4.37-1.64-10.51-4.51-10.51-11.33c0-7.03,5.8-11.74,13.93-11.74c5.12,0,9.22,2.12,12.15,4.37
		c0.75,0.61,0.82,1.71,0.34,2.39l-3.62,4.78c-0.61,0.75-1.71,0.82-2.39,0.34c-2.18-1.64-4.23-2.53-6.35-2.53
		c-2.8,0-3.21,1.02-3.21,1.98c0,1.02,1.64,1.91,5.8,3.41c4.51,1.71,10.79,4.23,10.79,11.74c0,6.83-5.6,12.09-14.75,12.09
		c-5.05,0-10.24-2.12-13.79-5.05c-0.75-0.61-0.75-1.64-0.27-2.32L200.81,40.15z"/>
	<path class="st2" d="M234.82,24.44h-3.07c-1.02,0-1.71-0.96-1.71-1.71v-5.87c0-0.96,0.82-1.64,1.57-1.71l3.76-0.27l0.82-7.72
		c0.07-0.89,0.89-1.5,1.71-1.5h6.55c1.02,0,1.71,0.96,1.71,1.71v7.44h6.83c1.02,0,1.71,0.96,1.71,1.71v6.21
		c0,1.02-0.96,1.71-1.71,1.71h-6.83v14.27c0,3.48,0.89,4.16,3,4.16c0.82,0,2.05-0.27,2.8-0.61c0.48-0.21,1.91-0.61,2.32,1.16
		l1.37,5.8c0.21,0.89-0.27,1.78-1.09,2.05c-1.91,0.61-4.44,1.3-7.37,1.3c-8.88,0-12.36-6.15-12.36-13.86V24.44z"/>
	<path class="st2" d="M173.57,13.88c-10.67,0-19.33,8.65-19.33,19.33s8.65,19.33,19.33,19.33s19.33-8.65,19.33-19.33
		S184.25,13.88,173.57,13.88z M179.69,36.28h-2.58c-0.55,0-1,0.45-1,1v7.87c0,0.76-0.62,1.38-1.38,1.38h-2.32
		c-0.76,0-1.38-0.62-1.38-1.38v-7.87c0-0.55-0.45-1-1-1h-2.58c-2.23,0-3.63-2.42-2.51-4.35l6.12-10.6c1.12-1.93,3.91-1.93,5.03,0
		l6.12,10.6C183.32,33.86,181.93,36.28,179.69,36.28z"/>
	<path class="st2" d="M20.14,16.52c0-1.02,0.96-1.71,1.71-1.71h7.85c1.02,0,1.71,0.96,1.71,1.71v33.52c0,1.02-0.96,1.71-1.71,1.71
		h-7.85c-1.02,0-1.71-0.96-1.71-1.71V16.52z"/>
</g>
</svg>
