<?xml version="1.0" encoding="utf-8"?>
<!-- Generator: Adobe Illustrator 24.1.2, SVG Export Plug-In . SVG Version: 6.00 Build 0)  -->
<svg version="1.1" id="Layer_1" xmlns="http://www.w3.org/2000/svg" xmlns:xlink="http://www.w3.org/1999/xlink" x="0px" y="0px"
	 width="157.35px" height="40px" viewBox="0 0 157.35 40" style="enable-background:new 0 0 157.35 40;" xml:space="preserve">
<style type="text/css">
	.st0{fill:#FFFFFF;}
	.st1{fill:#FBAE17;}
	.st2{fill:#624FA0;}
	.st3{fill:#231F20;}
	.st4{fill:#EBE9F4;}
	.st5{fill:#BDB6D8;}
	.st6{fill:#9082BC;}
	.st7{fill:#504186;}
	.st8{fill:#3D326B;}
	.st9{fill:#2B2451;}
</style>
<g>
	<path class="st0" d="M0,1.13C0,0.5,0.59,0.08,1.05,0.08h4.83c0.63,0,1.05,0.59,1.05,1.05v24.62c0,0.29,0.04,0.46,0.08,0.55
		c0.13,0,0.21,0,0.46-0.04c0.55-0.13,1.13,0.21,1.26,0.84l0.63,3.61c0.08,0.5-0.21,0.97-0.63,1.13c-0.76,0.34-1.76,0.5-2.98,0.5
		C1.6,32.35,0,29.33,0,25.5V1.13z"/>
	<path class="st1" d="M11.85,3.82c0-2.27,1.81-3.82,4.03-3.82s4.03,1.55,4.03,3.82c0,2.23-1.85,3.78-4.03,3.78
		S11.85,6.05,11.85,3.82z"/>
	<path class="st0" d="M23.45,10.17c0-0.63,0.59-1.05,1.05-1.05h3.99c0.55,0,1.01,0.46,1.05,0.92l0.08,0.92
		c1.68-1.34,3.66-2.35,6.13-2.35c5.17,0,7.4,3.78,7.4,9.24V30.8c0,0.63-0.59,1.05-1.05,1.05h-4.83c-0.63,0-1.05-0.59-1.05-1.05
		V18.49c0-3.19-0.63-3.61-2.18-3.61c-1.3,0-2.18,0.55-3.66,1.97V30.8c0,0.63-0.59,1.05-1.05,1.05H24.5c-0.63,0-1.05-0.59-1.05-1.05
		V10.17z"/>
	<path class="st0" d="M47.14,1.13c0-0.63,0.59-1.05,1.05-1.05h4.75c0.63,0,1.05,0.59,1.05,1.05v15.71l5.92-7.35
		c0.21-0.25,0.5-0.38,0.8-0.38h5.29c0,0,2.14,0.13,0.8,1.72l-6.55,7.82l7.35,11.6c0,0,1.13,1.6-0.88,1.6h-5.25
		c-0.38,0-0.76-0.25-0.92-0.5l-4.54-7.73l-2.02,2.31v4.87c0,0.63-0.59,1.05-1.05,1.05h-4.75c-0.63,0-1.05-0.59-1.05-1.05V1.13z"/>
	<path class="st0" d="M77.73,32.48v6.47c0,0.63-0.59,1.05-1.05,1.05h-4.83c-0.63,0-1.05-0.59-1.05-1.05V10.17
		c0-0.63,0.59-1.05,1.05-1.05h3.99c0.5,0,0.97,0.42,1.05,0.88l0.08,0.55c1.64-1.13,3.53-1.93,5.59-1.93c5.88,0,9.16,4.87,9.16,11.55
		c0,7.48-4.58,12.18-9.87,12.18c-1.47,0-2.86-0.46-4.16-1.22L77.73,32.48z M80.84,26.26c1.93,0,3.78-1.64,3.78-6.05
		c0-3.99-1.13-5.5-3.4-5.5c-1.05,0-2.14,0.5-3.49,1.72v8.66C78.95,26.01,79.96,26.26,80.84,26.26z"/>
	<path class="st0" d="M123.58,24.71c0.34-0.46,0.97-0.59,1.47-0.21c1.76,1.34,3.32,2.1,5.08,2.1c1.89,0,2.23-0.71,2.23-1.43
		c0-0.71-1.26-1.39-3.74-2.35c-2.69-1.01-6.47-2.77-6.47-6.97c0-4.33,3.57-7.23,8.57-7.23c3.15,0,5.67,1.3,7.48,2.69
		c0.46,0.38,0.5,1.05,0.21,1.47l-2.23,2.94c-0.38,0.46-1.05,0.5-1.47,0.21c-1.34-1.01-2.6-1.55-3.91-1.55
		c-1.72,0-1.97,0.63-1.97,1.22c0,0.63,1.01,1.18,3.57,2.1c2.77,1.05,6.64,2.61,6.64,7.23c0,4.2-3.45,7.44-9.08,7.44
		c-3.11,0-6.3-1.3-8.49-3.11c-0.46-0.38-0.46-1.01-0.17-1.43L123.58,24.71z"/>
	<path class="st0" d="M144.5,15.04h-1.89c-0.63,0-1.05-0.59-1.05-1.05v-3.61c0-0.59,0.5-1.01,0.97-1.05l2.31-0.17l0.5-4.75
		c0.04-0.55,0.55-0.92,1.05-0.92h4.03c0.63,0,1.05,0.59,1.05,1.05v4.58h4.2c0.63,0,1.05,0.59,1.05,1.05v3.82
		c0,0.63-0.59,1.05-1.05,1.05h-4.2v8.78c0,2.14,0.55,2.56,1.85,2.56c0.5,0,1.26-0.17,1.72-0.38c0.29-0.13,1.18-0.38,1.43,0.71
		l0.84,3.57c0.13,0.55-0.17,1.09-0.67,1.26c-1.18,0.38-2.73,0.8-4.54,0.8c-5.46,0-7.6-3.78-7.6-8.53V15.04z"/>
	<path class="st0" d="M106.81,8.54c-6.57,0-11.89,5.32-11.89,11.89s5.32,11.89,11.89,11.89s11.89-5.32,11.89-11.89
		S113.38,8.54,106.81,8.54z M110.58,22.33h-1.59c-0.34,0-0.62,0.28-0.62,0.62v4.85c0,0.47-0.38,0.85-0.85,0.85h-1.43
		c-0.47,0-0.85-0.38-0.85-0.85v-4.85c0-0.34-0.28-0.62-0.62-0.62h-1.59c-1.37,0-2.23-1.49-1.55-2.68l3.77-6.52
		c0.69-1.19,2.41-1.19,3.09,0l3.77,6.52C112.81,20.84,111.96,22.33,110.58,22.33z"/>
	<path class="st0" d="M12.4,10.17c0-0.63,0.59-1.05,1.05-1.05h4.83c0.63,0,1.05,0.59,1.05,1.05V30.8c0,0.63-0.59,1.05-1.05,1.05
		h-4.83c-0.63,0-1.05-0.59-1.05-1.05V10.17z"/>
</g>
</svg>
