<?xml version="1.0" encoding="utf-8"?>
<!-- Generator: Adobe Illustrator 24.1.2, SVG Export Plug-In . SVG Version: 6.00 Build 0)  -->
<svg version="1.1" id="Layer_1" xmlns="http://www.w3.org/2000/svg" xmlns:xlink="http://www.w3.org/1999/xlink" x="0px" y="0px"
	 width="417.55px" height="124.05px" viewBox="0 0 417.55 124.05" style="enable-background:new 0 0 417.55 124.05;"
	 xml:space="preserve">
<style type="text/css">
	.st0{fill:#FFFFFF;}
	.st1{fill:#FCB017;}
	.st2{fill:#624FA1;}
</style>
<g>
	<g>
		<path class="st0" d="M26.4,98.92C13.82,98.92,6,90.06,6,75.79V14.84c0-4.68,3.95-8.63,8.63-8.63h12.09c4.68,0,8.63,3.95,8.63,8.63
			v57.81c2.21,1.2,3.88,3.35,4.4,5.96c0.01,0.05,1.6,9.18,1.6,9.18c0.66,3.96-1.5,7.87-5.13,9.39
			C33.57,98.33,30.27,98.92,26.4,98.92z"/>
		<path class="st0" d="M26.71,12.21c1.58,0,2.63,1.47,2.63,2.63v61.58c0,0.74,0.11,1.16,0.21,1.37c0.32,0,0.53,0,1.16-0.11
			c0.19-0.04,0.38-0.07,0.58-0.07c1.18,0,2.31,0.81,2.58,2.17l1.58,9.04c0.21,1.26-0.53,2.42-1.58,2.84
			c-1.89,0.84-4.41,1.26-7.46,1.26c-10.4,0-14.4-7.57-14.4-17.13V14.84c0-1.58,1.47-2.63,2.63-2.63H26.71 M26.71,0.21H14.63
			C6.56,0.21,0,6.77,0,14.84v60.95c0,17.7,10.36,29.13,26.4,29.13c4.69,0,8.78-0.75,12.18-2.23c6.15-2.6,9.8-9.22,8.7-15.85
			c0-0.03-0.01-0.06-0.02-0.09l-1.58-9.04c-0.02-0.1-0.04-0.19-0.05-0.29c-0.61-3.06-2.15-5.74-4.29-7.77V14.84
			C41.34,6.77,34.78,0.21,26.71,0.21L26.71,0.21z"/>
	</g>
	<g>
		<path class="st0" d="M51.72,37.02c-9.02,0-16.09-6.79-16.09-15.46C35.64,12.84,42.7,6,51.72,6s16.09,6.84,16.09,15.56
			C67.81,30.23,60.75,37.02,51.72,37.02z"/>
		<path class="st0" d="M51.72,12c5.57,0,10.09,3.89,10.09,9.56c0,5.57-4.62,9.46-10.09,9.46s-10.09-3.89-10.09-9.46
			C41.64,15.89,46.15,12,51.72,12 M51.72,0C39.34,0,29.64,9.47,29.64,21.56c0,12.03,9.7,21.46,22.09,21.46s22.09-9.43,22.09-21.46
			C73.81,9.47,64.11,0,51.72,0L51.72,0z"/>
	</g>
	<g>
		<path class="st0" d="M105.22,97.66c-4.68,0-8.63-3.95-8.63-8.63V58.24c0-1.36-0.05-2.32-0.12-2.99c-0.53,0.1-1.21,0.44-2.49,1.52
			v32.26c0,4.68-3.95,8.63-8.63,8.63H73.27c-4.68,0-8.63-3.95-8.63-8.63v-51.6c0-4.68,3.95-8.63,8.63-8.63h9.98
			c2,0,3.86,0.69,5.34,1.86c4.11-2.09,8.35-3.12,12.84-3.12c15.34,0,24.5,10.89,24.5,29.12v32.37c0,4.68-3.95,8.63-8.63,8.63H105.22
			z"/>
		<path class="st0" d="M101.43,33.54c12.93,0,18.5,9.46,18.5,23.12v32.37c0,1.58-1.47,2.63-2.63,2.63h-12.09
			c-1.58,0-2.63-1.47-2.63-2.63V58.24c0-7.99-1.58-9.04-5.46-9.04c-3.26,0-5.46,1.37-9.14,4.94v34.89c0,1.58-1.47,2.63-2.63,2.63
			H73.27c-1.58,0-2.63-1.47-2.63-2.63v-51.6c0-1.58,1.47-2.63,2.63-2.63h9.98c1.37,0,2.52,1.16,2.63,2.31l0.21,2.31
			C90.29,36.07,95.23,33.54,101.43,33.54 M101.43,21.54c-4.37,0-8.54,0.79-12.56,2.4c-1.74-0.73-3.64-1.14-5.62-1.14h-9.98
			c-8.07,0-14.63,6.56-14.63,14.63v51.6c0,8.07,6.56,14.63,14.63,14.63h12.09c3.83,0,7.32-1.48,9.93-3.9c2.61,2.42,6.1,3.9,9.93,3.9
			h12.09c8.07,0,14.63-6.56,14.63-14.63V56.66c0-9.74-2.27-17.75-6.75-23.81C121.37,27.69,114.16,21.54,101.43,21.54L101.43,21.54z"
			/>
	</g>
	<g>
		<path class="st0" d="M165.75,97.66c-2.84,0-5.71-1.54-7.3-3.93c-0.07-0.1-0.13-0.2-0.19-0.3l-5.22-8.89v4.49
			c0,4.68-3.95,8.63-8.63,8.63h-11.88c-4.68,0-8.63-3.95-8.63-8.63V14.84c0-4.68,3.95-8.63,8.63-8.63h11.88
			c4.68,0,8.63,3.95,8.63,8.63v22.29l4.15-5.14c1.71-2.05,4.11-3.18,6.67-3.18h13.24c0.12,0,0.24,0,0.35,0.01
			c2.96,0.17,6.66,1.6,8.15,5.07c0.72,1.69,1.44,5.11-1.92,9.09l-13.57,16.17l15.97,25.19c1.56,2.29,2.6,5.8,0.96,8.99
			c-0.83,1.61-3,4.32-8.17,4.32H165.75z"/>
		<path class="st0" d="M144.42,12.21c1.58,0,2.63,1.47,2.63,2.63v39.3l14.82-18.39c0.53-0.63,1.26-0.95,2-0.95h13.24
			c0,0,5.36,0.32,2,4.31L162.7,58.66l18.39,29c0,0,2.84,3.99-2.21,3.99h-13.14c-0.95,0-1.89-0.63-2.31-1.26l-11.35-19.34l-5.04,5.78
			v12.19c0,1.58-1.47,2.63-2.63,2.63h-11.88c-1.58,0-2.63-1.47-2.63-2.63V14.84c0-1.58,1.47-2.63,2.63-2.63H144.42 M144.42,0.21
			h-11.88c-8.07,0-14.63,6.56-14.63,14.63v74.19c0,8.07,6.56,14.63,14.63,14.63h11.88c4.19,0,7.98-1.77,10.64-4.6
			c2.77,2.89,6.68,4.6,10.69,4.6h13.14c8.66,0,12.32-5.29,13.5-7.57c2.83-5.49,1.24-11.29-1.26-15.03l-13.58-21.42l10.75-12.82
			c5.62-6.67,3.85-12.93,2.82-15.31c-2.57-5.98-8.56-8.41-13.31-8.69c-0.23-0.01-0.47-0.02-0.71-0.02h-13.24
			c-1.66,0-3.29,0.28-4.81,0.82v-8.78C159.04,6.77,152.48,0.21,144.42,0.21L144.42,0.21z"/>
	</g>
	<g>
		<path class="st0" d="M191.71,118.05c-4.68,0-8.63-3.95-8.63-8.63V37.43c0-4.68,3.95-8.63,8.63-8.63h9.98
			c1.76,0,3.43,0.56,4.83,1.51c3.94-1.84,7.96-2.77,11.98-2.77c17.29,0,28.91,14.03,28.91,34.9c0,20.79-13.2,36.48-30.7,36.48
			c-1.43,0-2.87-0.13-4.3-0.39v10.89c0,4.68-3.95,8.63-8.63,8.63H191.71z M212.42,71.35c0.74,0.28,1.31,0.34,1.78,0.34
			c2.07,0,3.46-3.67,3.46-9.13c0-5.02-0.82-6.83-1.17-7.37c-0.13-0.21-0.26-0.4-1.35-0.4c-0.79,0-1.77,0.5-2.72,1.16V71.35z"/>
		<path class="st0" d="M218.51,33.54c14.71,0,22.91,12.19,22.91,28.9c0,18.71-11.45,30.48-24.7,30.48c-3.68,0-7.15-1.16-10.4-3.05
			l0.1,3.36v16.18c0,1.58-1.47,2.63-2.63,2.63h-12.09c-1.58,0-2.63-1.47-2.63-2.63V37.43c0-1.58,1.47-2.63,2.63-2.63h9.98
			c1.26,0,2.42,1.05,2.63,2.21l0.21,1.37C208.63,35.54,213.36,33.54,218.51,33.54 M214.2,77.68c4.83,0,9.46-4.1,9.46-15.13
			c0-9.98-2.84-13.77-8.51-13.77c-2.63,0-5.36,1.26-8.72,4.31v21.65C209.47,77.05,211.99,77.68,214.2,77.68 M218.51,21.54
			c-3.98,0-7.92,0.73-11.79,2.18c-1.58-0.59-3.28-0.92-5.03-0.92h-9.98c-8.07,0-14.63,6.56-14.63,14.63v71.99
			c0,8.07,6.56,14.63,14.63,14.63h12.09c8.07,0,14.63-6.56,14.63-14.63v-4.54c20.07-0.96,35-18.88,35-42.44
			c0-11.06-2.89-20.73-8.37-27.96C238.73,26.14,229.3,21.54,218.51,21.54L218.51,21.54z"/>
	</g>
	<g>
		<path class="st0" d="M337.06,98.92c-8.76,0-18.12-3.42-25.05-9.15c-3.43-2.81-4.11-7.93-1.51-11.64c0.02-0.03,5.74-7.87,5.74-7.87
			c0.76-1.04,1.73-1.89,2.83-2.49c-4.13-3.57-7.56-8.74-7.56-16.14c0-13.95,11.54-24.08,27.44-24.08c7.95,0,15.47,2.68,22.36,7.97
			c0.05,0.04,0.1,0.08,0.14,0.11c3.52,2.88,4.25,8.05,1.64,11.77c-0.04,0.06-0.09,0.12-0.13,0.18l-5.57,7.36
			c-0.05,0.06-0.09,0.12-0.14,0.18c-0.3,0.37-0.62,0.7-0.97,1.01c5.06,3.62,9.47,9.21,9.47,18.21
			C365.75,88.8,353.95,98.92,337.06,98.92z M338.06,54.02L338.06,54.02z"/>
		<path class="st0" d="M338.95,33.54c7.88,0,14.19,3.26,18.71,6.73c1.16,0.95,1.26,2.63,0.53,3.68l-5.57,7.36
			c-0.55,0.68-1.36,0.99-2.14,0.99c-0.56,0-1.1-0.16-1.54-0.47c-3.36-2.52-6.52-3.89-9.77-3.89c-4.31,0-4.94,1.58-4.94,3.05
			c0,1.58,2.52,2.94,8.93,5.25c6.94,2.63,16.6,6.52,16.6,18.08c0,10.51-8.62,18.6-22.7,18.6c-7.78,0-15.76-3.26-21.23-7.78
			c-1.16-0.95-1.16-2.52-0.42-3.57l5.67-7.78c0.5-0.69,1.27-1.08,2.07-1.08c0.54,0,1.1,0.18,1.61,0.56
			c4.41,3.36,8.3,5.25,12.72,5.25c4.73,0,5.57-1.79,5.57-3.57c0-1.79-3.15-3.47-9.35-5.89c-6.73-2.52-16.18-6.94-16.18-17.44
			C317.51,40.79,326.44,33.54,338.95,33.54 M338.95,21.54c-19.38,0-33.44,12.65-33.44,30.08c0,5.95,1.79,11.38,5.22,16l-5.02,6.88
			c-0.05,0.06-0.09,0.13-0.14,0.19c-4.38,6.26-3.22,14.91,2.63,19.72c7.97,6.58,18.75,10.51,28.85,10.51
			c20.11,0,34.7-12.87,34.7-30.6c0-7.32-2.47-13.79-7.19-18.92l3.19-4.21c0.09-0.12,0.18-0.24,0.26-0.36
			c4.39-6.27,3.18-14.99-2.76-19.85c-0.1-0.08-0.19-0.16-0.29-0.23C357.11,24.73,348.12,21.54,338.95,21.54L338.95,21.54z"/>
	</g>
	<g>
		<path class="st0" d="M392.44,98.92c-15.43,0-25.02-10.47-25.02-27.33V55.52c-4.1-0.64-7.36-4.28-7.36-8.53v-9.04
			c0-4.42,3.46-8.2,7.88-8.6c0.04,0,0.88-0.07,0.88-0.07l0.73-6.83c0.39-4.35,4.15-7.74,8.6-7.74h10.09c4.68,0,8.63,3.95,8.63,8.63
			v5.46h4.51c4.68,0,8.63,3.95,8.63,8.63v9.56c0,4.68-3.95,8.63-8.63,8.63h-4.51c0,0,0,16.07,0,16.12c0.18-0.05,0.34-0.11,0.45-0.16
			c0.04-0.02,0.08-0.03,0.12-0.05c0.83-0.36,2.15-0.78,3.72-0.78c3.96,0,7.12,2.64,8.06,6.73l2.1,8.91
			c1.02,4.43-1.4,8.81-5.62,10.22C402.31,97.7,397.82,98.92,392.44,98.92z"/>
		<path class="st0" d="M388.24,20.72c1.58,0,2.63,1.47,2.63,2.63V34.8h10.51c1.58,0,2.63,1.47,2.63,2.63v9.56
			c0,1.58-1.47,2.63-2.63,2.63h-10.51v21.96c0,5.36,1.37,6.41,4.62,6.41c1.26,0,3.15-0.42,4.31-0.95c0.29-0.12,0.8-0.29,1.35-0.29
			c0.87,0,1.83,0.42,2.22,2.08l2.1,8.93c0.32,1.37-0.42,2.73-1.68,3.15c-2.94,0.95-6.83,2-11.35,2c-13.66,0-19.02-9.46-19.02-21.33
			V49.62h-4.73c-1.58,0-2.63-1.47-2.63-2.63v-9.04c0-1.47,1.26-2.52,2.42-2.63l5.78-0.42l1.26-11.88c0.1-1.37,1.37-2.31,2.63-2.31
			H388.24 M388.24,8.72h-10.09c-7.52,0-13.87,5.75-14.57,13.15l-0.27,2.5c-5.42,2.18-9.25,7.53-9.25,13.59v9.04
			c0,5.42,2.96,10.16,7.36,12.69v11.9c0,20.25,12.18,33.33,31.02,33.33c6.29,0,11.58-1.47,15.02-2.57c0.04-0.01,0.08-0.03,0.12-0.04
			c7.18-2.39,11.3-9.8,9.58-17.24l-2.11-8.97c-1.45-6.2-6.23-10.54-12.19-11.24v-3.31C410.23,60.8,416,54.56,416,46.99v-9.56
			c0-7.57-5.77-13.81-13.14-14.55C402.61,15.03,396.14,8.72,388.24,8.72L388.24,8.72z"/>
	</g>
	<g>
		<path class="st0" d="M279.16,98.86c-19.71,0-35.75-16.04-35.75-35.75s16.04-35.75,35.75-35.75S314.9,43.4,314.9,63.11
			S298.87,98.86,279.16,98.86z M273.71,61.84c2.14,0,4.08,0.9,5.45,2.33c1.37-1.44,3.31-2.33,5.45-2.33h1.31l-6.76-11.71
			l-6.76,11.71H273.71z"/>
		<path class="st0" d="M279.16,33.36c16.43,0,29.75,13.32,29.75,29.75c0,16.43-13.32,29.75-29.75,29.75
			c-16.43,0-29.75-13.32-29.75-29.75C249.41,46.68,262.73,33.36,279.16,33.36 M269.74,67.84h3.97c0.85,0,1.54,0.69,1.54,1.54v12.12
			c0,1.17,0.95,2.12,2.12,2.12h3.57c1.17,0,2.12-0.95,2.12-2.12V69.39c0-0.85,0.69-1.54,1.54-1.54h3.97c3.44,0,5.59-3.72,3.87-6.7
			l-9.42-16.32c-0.86-1.49-2.36-2.23-3.87-2.23s-3.01,0.74-3.87,2.23l-9.42,16.32C264.15,64.12,266.3,67.84,269.74,67.84
			 M279.16,21.36c-23.02,0-41.75,18.73-41.75,41.75s18.73,41.75,41.75,41.75c23.02,0,41.75-18.73,41.75-41.75
			S302.18,21.36,279.16,21.36L279.16,21.36z"/>
	</g>
	<g>
		<path class="st0" d="M45.63,97.66c-4.68,0-8.63-3.95-8.63-8.63v-51.6c0-4.68,3.95-8.63,8.63-8.63h12.08
			c4.68,0,8.63,3.95,8.63,8.63v51.6c0,4.68-3.95,8.63-8.63,8.63H45.63z"/>
		<path class="st0" d="M57.71,34.8c1.58,0,2.63,1.47,2.63,2.63v51.6c0,1.58-1.47,2.63-2.63,2.63H45.63c-1.58,0-2.63-1.47-2.63-2.63
			v-51.6c0-1.58,1.47-2.63,2.63-2.63H57.71 M57.71,22.8H45.63C37.56,22.8,31,29.37,31,37.43v51.6c0,8.07,6.56,14.63,14.63,14.63
			h12.09c8.07,0,14.63-6.56,14.63-14.63v-51.6C72.34,29.37,65.78,22.8,57.71,22.8L57.71,22.8z"/>
	</g>
</g>
<g>
	<g>
		<path d="M12,14.84c0-1.58,1.47-2.63,2.63-2.63h12.09c1.58,0,2.63,1.47,2.63,2.63v61.58c0,0.74,0.11,1.16,0.21,1.37
			c0.32,0,0.53,0,1.16-0.11c1.37-0.31,2.84,0.53,3.15,2.1l1.58,9.04c0.21,1.26-0.53,2.42-1.58,2.84c-1.89,0.84-4.41,1.26-7.46,1.26
			c-10.4,0-14.4-7.57-14.4-17.13V14.84z"/>
	</g>
	<g>
		<path class="st1" d="M41.64,21.56c0-5.67,4.52-9.56,10.09-9.56s10.09,3.89,10.09,9.56c0,5.57-4.62,9.46-10.09,9.46
			S41.64,27.13,41.64,21.56z"/>
	</g>
	<g>
		<path d="M70.64,37.43c0-1.58,1.47-2.63,2.63-2.63h9.98c1.37,0,2.52,1.16,2.63,2.31l0.21,2.31c4.2-3.36,9.14-5.89,15.34-5.89
			c12.93,0,18.5,9.46,18.5,23.12v32.37c0,1.58-1.47,2.63-2.63,2.63h-12.09c-1.58,0-2.63-1.47-2.63-2.63V58.24
			c0-7.99-1.58-9.04-5.46-9.04c-3.26,0-5.46,1.37-9.14,4.94v34.89c0,1.58-1.47,2.63-2.63,2.63H73.27c-1.58,0-2.63-1.47-2.63-2.63
			V37.43z"/>
	</g>
	<g>
		<path d="M129.91,14.84c0-1.58,1.47-2.63,2.63-2.63h11.88c1.58,0,2.63,1.47,2.63,2.63v39.3l14.82-18.39c0.53-0.63,1.26-0.95,2-0.95
			h13.24c0,0,5.36,0.32,2,4.31L162.7,58.66l18.39,29c0,0,2.84,3.99-2.21,3.99h-13.14c-0.95,0-1.89-0.63-2.31-1.26l-11.35-19.34
			l-5.04,5.78v12.19c0,1.58-1.47,2.63-2.63,2.63h-11.88c-1.58,0-2.63-1.47-2.63-2.63V14.84z"/>
	</g>
	<g>
		<path d="M206.42,93.23v16.18c0,1.58-1.47,2.63-2.63,2.63h-12.09c-1.58,0-2.63-1.47-2.63-2.63V37.43c0-1.58,1.47-2.63,2.63-2.63
			h9.98c1.26,0,2.42,1.05,2.63,2.21l0.21,1.37c4.1-2.84,8.83-4.83,13.98-4.83c14.71,0,22.91,12.19,22.91,28.9
			c0,18.71-11.45,30.48-24.7,30.48c-3.68,0-7.15-1.16-10.4-3.05L206.42,93.23z M214.2,77.68c4.83,0,9.46-4.1,9.46-15.13
			c0-9.98-2.84-13.77-8.51-13.77c-2.63,0-5.36,1.26-8.72,4.31v21.65C209.47,77.05,211.99,77.68,214.2,77.68z"/>
	</g>
	<g>
		<path d="M321.08,73.79c0.84-1.16,2.42-1.47,3.68-0.53c4.41,3.36,8.3,5.25,12.72,5.25c4.73,0,5.57-1.79,5.57-3.57
			s-3.15-3.47-9.35-5.89c-6.73-2.52-16.18-6.94-16.18-17.44c0-10.82,8.93-18.08,21.44-18.08c7.88,0,14.19,3.26,18.71,6.73
			c1.16,0.95,1.26,2.63,0.53,3.68l-5.57,7.36c-0.95,1.16-2.63,1.26-3.68,0.53c-3.36-2.52-6.52-3.89-9.77-3.89
			c-4.31,0-4.94,1.58-4.94,3.05c0,1.58,2.52,2.94,8.93,5.25c6.94,2.63,16.6,6.52,16.6,18.08c0,10.51-8.62,18.6-22.7,18.6
			c-7.78,0-15.76-3.26-21.23-7.78c-1.16-0.95-1.16-2.52-0.42-3.57L321.08,73.79z"/>
	</g>
	<g>
		<path d="M373.42,49.62h-4.73c-1.58,0-2.63-1.47-2.63-2.63v-9.04c0-1.47,1.26-2.52,2.42-2.63l5.78-0.42l1.26-11.88
			c0.1-1.37,1.37-2.31,2.63-2.31h10.09c1.58,0,2.63,1.47,2.63,2.63V34.8h10.51c1.58,0,2.63,1.47,2.63,2.63v9.56
			c0,1.58-1.47,2.63-2.63,2.63h-10.51v21.96c0,5.36,1.37,6.41,4.62,6.41c1.26,0,3.15-0.42,4.31-0.95c0.74-0.32,2.94-0.95,3.57,1.79
			l2.1,8.93c0.32,1.37-0.42,2.73-1.68,3.15c-2.94,0.95-6.83,2-11.35,2c-13.66,0-19.02-9.46-19.02-21.33V49.62z"/>
	</g>
	<g>
		<path d="M279.16,33.36c-16.43,0-29.75,13.32-29.75,29.75s13.32,29.75,29.75,29.75s29.75-13.32,29.75-29.75
			S295.59,33.36,279.16,33.36z M288.58,67.84h-3.97c-0.85,0-1.54,0.69-1.54,1.54v12.12c0,1.17-0.95,2.12-2.12,2.12h-3.57
			c-1.17,0-2.12-0.95-2.12-2.12V69.39c0-0.85-0.69-1.54-1.54-1.54h-3.97c-3.44,0-5.59-3.72-3.87-6.7l9.42-16.32
			c1.72-2.98,6.02-2.98,7.73,0l9.42,16.32C294.16,64.12,292.02,67.84,288.58,67.84z"/>
	</g>
	<g>
		<path d="M43,37.43c0-1.58,1.47-2.63,2.63-2.63h12.09c1.58,0,2.63,1.47,2.63,2.63v51.6c0,1.58-1.47,2.63-2.63,2.63H45.63
			c-1.58,0-2.63-1.47-2.63-2.63V37.43z"/>
	</g>
</g>
</svg>
